 <svg  version="1.0" xmlns="http://www.w3.org/2000/svg"  width="200.000000pt" height="200.000000pt" viewBox="0 0 200.000000 200.000000"  preserveAspectRatio="xMidYMid meet">  <g transform="translate(0.000000,200.000000) scale(0.100000,-0.100000)" fill="#000000" stroke="none"> <path d="M1005 1586 c-10 -24 -22 -35 -43 -39 -17 -3 -42 -9 -57 -13 -25 -6 -26 -5 -16 13 10 20 6 33 -10 33 -5 0 -15 -13 -24 -29 -11 -22 -29 -34 -77 -50 -81 -27 -98 -38 -77 -46 9 -3 37 3 63 15 26 11 50 20 52 20 6 0 -54 -108 -80 -144 -29 -38 -120 -110 -124 -97 -2 6 13 31 33 56 38 46 41 80 8 73 -21 -4 -70 -73 -79 -110 -5 -23 -2 -29 19 -39 21 -10 31 -8 59 9 21 13 43 19 56 15 21 -5 44 7 189 101 55 35 17 30 -58 -9 -39 -20 -74 -34 -76 -31 -3 3 19 46 48 97 52 88 56 92 109 110 68 23 70 23 71 2 0 -10 11 6 25 36 28 61 27 61 13 61 -5 0 -16 -15 -24 -34z m-372 -270 c-10 -14 -22 -26 -26 -26 -5 0 1 14 13 31 12 16 24 28 27 25 3 -2 -3 -16 -14 -30z"/> <path d="M624 1553 c-9 -21 -56 -121 -106 -223 -50 -102 -94 -197 -98 -211 -17 -58 36 -65 119 -15 31 18 109 61 174 96 118 64 150 90 60 50 -26 -12 -108 -51 -181 -87 -74 -35 -137 -62 -140 -58 -4 3 21 61 55 128 148 298 165 335 159 346 -13 20 -27 12 -42 -26z"/> <path d="M1065 1520 c-11 -5 -33 -20 -50 -34 -25 -21 -28 -28 -18 -43 6 -10 17 -16 25 -14 48 13 47 9 -4 -24 -32 -20 -58 -38 -58 -40 0 -2 36 13 80 33 44 20 80 43 80 49 0 18 -45 27 -69 13 -12 -6 -21 -7 -21 -1 0 11 59 33 70 26 13 -8 19 22 7 34 -13 13 -15 13 -42 1z"/> <path d="M627 1063 c-4 -3 -7 -17 -7 -29 0 -21 -3 -23 -27 -13 -45 17 -53 6 -53 -66 0 -72 8 -83 53 -66 l27 11 0 -79 0 -78 -44 10 c-39 9 -50 7 -93 -14 -62 -31 -93 -77 -93 -138 0 -164 195 -222 294 -88 20 27 21 43 24 293 l3 264 -39 0 c-21 0 -42 -3 -45 -7z m-19 -102 c4 -25 -14 -51 -34 -51 -10 0 -14 14 -14 51 0 51 0 51 23 37 12 -9 23 -25 25 -37z m-3 -306 c52 -51 16 -145 -55 -145 -37 0 -90 47 -90 80 0 78 91 119 145 65z"/> <path d="M527 623 c-13 -13 -7 -51 9 -57 20 -8 44 11 44 34 0 23 -37 39 -53 23z"/> <path d="M960 915 l0 -45 45 0 45 0 0 45 0 45 -45 0 -45 0 0 -45z"/> <path d="M780 827 c-50 -25 -61 -67 -58 -232 l3 -150 45 0 45 0 5 143 c6 160 6 162 78 162 l42 0 0 45 0 45 -67 0 c-38 0 -79 -6 -93 -13z"/> <path d="M954 827 c-2 -7 -3 -96 -2 -197 l3 -185 167 -3 c160 -2 167 -2 173 18 3 11 3 29 0 41 -6 18 -14 20 -63 19 -97 -4 -94 -5 -90 43 l3 42 70 5 c70 5 70 5 70 35 0 30 0 30 -70 35 l-70 5 0 40 0 40 73 3 72 3 0 34 0 35 -166 -1 c-120 0 -166 -4 -170 -12z m112 -107 c-6 -38 -5 -40 18 -40 14 0 27 -4 30 -8 5 -9 -71 -142 -81 -142 -3 0 -3 22 0 49 6 49 6 50 -23 53 l-30 3 41 63 c23 34 44 62 47 62 2 0 2 -18 -2 -40z"/> <path d="M1312 828 c3 -7 33 -98 68 -201 l62 -188 51 3 50 3 64 190 c35 104 63 193 63 197 0 5 -20 8 -45 8 -44 0 -44 -1 -55 -42 -51 -194 -71 -250 -84 -237 -3 3 -22 65 -44 139 l-38 135 -48 3 c-37 2 -47 0 -44 -10z"/> </g> </svg> 